# xmcd CD database file
#
# Track frame offsets:
#	150
#	14305
#	35234
#	63517
#	85927
#	110139
#	129826
#
# Disc length: 1807 seconds
#
# Revision: 2
# Processed by: cddbd v1.4b41PL1 Copyright (c) Steve Scherf et al.
# Submitted via: Feurio! 1.51.7ß - http://www.feurio.com
#
DISCID=5b070d07
DTITLE=Syndicate Of Law - Right On Time
DYEAR=1900
DGENRE=
TTITLE0=Right On Time (on The Mix Edit)
TTITLE1=Right On Time (Original Brutal Mix)
TTITLE2=Right On Time (Extendet Mix)
TTITLE3=Right On Time (No Cremony Mix)
TTITLE4=Right On Time (Story Groove Mix)
TTITLE5=Right On Time (Cut Edit)
TTITLE6=2000 Kountdown
EXTD=
EXTT0=
EXTT1=
EXTT2=
EXTT3=
EXTT4=
EXTT5=
EXTT6=
PLAYORDER=
